<svg width="42" height="42" viewBox="0 0 42 42" fill="none" xmlns="http://www.w3.org/2000/svg">
<g clip-path="url(#clip0_374_149)">
<path d="M20.8832 20.1834C24.0332 20.1834 26.4832 17.6167 26.4832 14.4667C26.4832 11.3167 23.9165 8.8667 20.7665 8.8667C17.6165 8.8667 15.1665 11.4334 15.1665 14.4667C15.1665 17.6167 17.7332 20.1834 20.8832 20.1834ZM20.7665 11.2C20.8832 11.2 20.8832 11.2 20.7665 11.2C22.6332 11.2 24.1498 12.7167 24.1498 14.5834C24.1498 16.45 22.6332 17.85 20.7665 17.85C18.8998 17.85 17.4998 16.3334 17.4998 14.5834C17.4998 12.7167 19.0165 11.2 20.7665 11.2Z" fill="white"/>
<path d="M38.15 19.4833C35.9333 17.5 33.0167 16.45 29.9833 16.5666H29.05C28.8167 17.5 28.4667 18.3166 28 19.0166C28.7 18.9 29.2833 18.9 29.9833 18.9C32.2 18.7833 34.4167 19.4833 36.1667 20.7666V29.1666H38.5V19.8333L38.15 19.4833Z" fill="white"/>
<path d="M27.2998 9.10006C27.8832 7.70006 29.5165 7.00006 31.0332 7.58339C32.4332 8.16672 33.1332 9.80006 32.5498 11.3167C32.0832 12.3667 31.0332 13.0667 29.9832 13.0667C29.7498 13.0667 29.3998 13.0667 29.1665 12.9501C29.2832 13.5334 29.2832 14.1167 29.2832 14.5834V15.2834C29.5165 15.2834 29.7498 15.4001 29.9832 15.4001C32.8998 15.4001 35.2332 13.0667 35.2332 10.2667C35.2332 7.35006 32.8998 5.01672 30.0998 5.01672C28.2332 5.01672 26.5998 5.95006 25.6665 7.58339C26.2498 7.93339 26.8332 8.40006 27.2998 9.10006Z" fill="white"/>
<path d="M14 19.1334C13.5333 18.4334 13.1833 17.6167 12.95 16.6834H12.0167C8.98333 16.5667 6.06667 17.6167 3.85 19.4834L3.5 19.8334V29.1667H5.83333V20.7667C7.7 19.4834 9.8 18.7834 12.0167 18.9C12.7167 18.9 13.4167 19.0167 14 19.1334Z" fill="white"/>
<path d="M12.0166 15.2833C12.2499 15.2833 12.4832 15.2833 12.7166 15.1666V14.4666C12.7166 13.8833 12.7166 13.3 12.8332 12.8333C12.5999 12.95 12.2499 12.95 12.0166 12.95C10.4999 12.95 9.21656 11.6666 9.21656 10.15C9.21656 8.63332 10.4999 7.34998 12.0166 7.34998C13.1832 7.34998 14.2332 8.04998 14.6999 9.09998C15.1666 8.51665 15.8666 7.93332 16.4499 7.46665C14.9332 5.01665 11.7832 4.19998 9.33323 5.71665C6.88323 7.23332 6.06656 10.3833 7.58323 12.8333C8.51656 14.35 10.1499 15.2833 12.0166 15.2833Z" fill="white"/>
<path d="M30.4498 26.4833L30.2165 26.1333C27.8832 23.5667 24.6165 22.05 21.1165 22.1667C17.6165 22.05 14.2332 23.5667 11.8998 26.1333L11.6665 26.4833V35.35C11.6665 36.4 12.4832 37.3333 13.6498 37.3333H28.5832C29.6332 37.3333 30.5665 36.4 30.5665 35.35V26.4833H30.4498ZM28.1165 35H13.9998V27.3C15.8665 25.4333 18.4332 24.5 21.1165 24.5C23.6832 24.3833 26.2498 25.4333 28.1165 27.3V35Z" fill="white"/>
</g>
<defs>
<clipPath id="clip0_374_149">
<rect width="42" height="42" fill="white"/>
</clipPath>
</defs>
</svg>
