<svg width="37" height="38" viewBox="0 0 37 38" fill="none" xmlns="http://www.w3.org/2000/svg">
<g clip-path="url(#clip0_374_103)">
<path d="M18.4998 27.3521L12.1019 31.3104C11.8192 31.4951 11.5237 31.5743 11.2154 31.5479C10.9071 31.5215 10.6373 31.416 10.406 31.2312C10.1748 31.0465 9.99491 30.8159 9.86644 30.5393C9.73797 30.2628 9.71227 29.9524 9.78936 29.6083L11.4852 22.1271L5.81957 17.1C5.56262 16.8625 5.40229 16.5917 5.33857 16.2877C5.27484 15.9837 5.29386 15.6871 5.39561 15.3979C5.49736 15.1087 5.65152 14.8712 5.85811 14.6854C6.06469 14.4996 6.34733 14.3809 6.70602 14.3292L14.1831 13.6562L17.0737 6.6104C17.2022 6.29373 17.4016 6.05623 17.6719 5.8979C17.9422 5.73957 18.2182 5.6604 18.4998 5.6604C18.7814 5.6604 19.0573 5.73957 19.3276 5.8979C19.598 6.05623 19.7973 6.29373 19.9258 6.6104L22.8164 13.6562L30.2935 14.3292C30.6532 14.3819 30.9359 14.5007 31.1414 14.6854C31.347 14.8701 31.5012 15.1076 31.6039 15.3979C31.7067 15.6882 31.7262 15.9853 31.6625 16.2893C31.5988 16.5933 31.438 16.8635 31.18 17.1L25.5144 22.1271L27.2102 29.6083C27.2873 29.9514 27.2616 30.2617 27.1331 30.5393C27.0046 30.8169 26.8248 31.0476 26.5935 31.2312C26.3623 31.4149 26.0925 31.5205 25.7842 31.5479C25.4758 31.5753 25.1803 31.4962 24.8977 31.3104L18.4998 27.3521Z" fill="white"/>
<mask id="mask0_374_103" style="mask-type:alpha" maskUnits="userSpaceOnUse" x="5" y="5" width="27" height="26">
<path d="M18.5004 26.7885L24.9654 30.7347C25.251 30.9189 25.5496 30.9978 25.8612 30.9715C26.1728 30.9452 26.4454 30.84 26.6791 30.6558C26.9127 30.4717 27.0945 30.2417 27.2243 29.966C27.3541 29.6903 27.3801 29.3809 27.3022 29.0378L25.5886 21.5794L31.3137 16.5676C31.5733 16.3308 31.7353 16.0609 31.7997 15.7578C31.8641 15.4547 31.8449 15.159 31.7421 14.8707C31.6393 14.5824 31.4835 14.3456 31.2747 14.1604C31.066 13.9751 30.7804 13.8568 30.4179 13.8052L22.8623 13.1343L19.9414 6.10995C19.8116 5.79425 19.6101 5.55747 19.3369 5.39962C19.0638 5.24177 18.7849 5.16284 18.5004 5.16284C18.2158 5.16284 17.9369 5.24177 17.6638 5.39962C17.3907 5.55747 17.1892 5.79425 17.0594 6.10995L14.1384 13.1343L6.58283 13.8052C6.21933 13.8578 5.93373 13.9762 5.72601 14.1604C5.5183 14.3445 5.36251 14.5813 5.25866 14.8707C5.1548 15.1601 5.13507 15.4563 5.19946 15.7594C5.26385 16.0625 5.42639 16.3319 5.68707 16.5676L11.4122 21.5794L9.69852 29.0378C9.62063 29.3799 9.6466 29.6892 9.77642 29.966C9.90624 30.2428 10.088 30.4727 10.3217 30.6558C10.5553 30.8389 10.828 30.9442 11.1395 30.9715C11.4511 30.9989 11.7497 30.92 12.0353 30.7347L18.5004 26.7885Z" fill="#06F30A"/>
</mask>
<g mask="url(#mask0_374_103)">
<rect width="14.6279" height="27.5349" transform="matrix(-1 0 0 1 18.9302 4.30237)" fill="#06F30A"/>
</g>
</g>
<defs>
<clipPath id="clip0_374_103">
<rect width="37" height="38" fill="white"/>
</clipPath>
</defs>
</svg>
