<svg width="47" height="47" viewBox="0 0 47 47" fill="none" xmlns="http://www.w3.org/2000/svg">
<path d="M33.3436 0C36.7448 0 40.0068 1.35114 42.4118 3.75619C44.8169 6.16125 46.168 9.42319 46.168 12.8245V33.3436C46.168 36.7448 44.8169 40.0068 42.4118 42.4118C40.0068 44.8169 36.7448 46.168 33.3436 46.168H12.8245C9.42319 46.168 6.16125 44.8169 3.75619 42.4118C1.35114 40.0068 0 36.7448 0 33.3436V12.8245C0 9.42319 1.35114 6.16125 3.75619 3.75619C6.16125 1.35114 9.42319 0 12.8245 0H33.3436ZM23.084 12.8245C20.363 12.8245 17.7534 13.9054 15.8294 15.8294C13.9054 17.7534 12.8245 20.363 12.8245 23.084C12.8245 25.805 13.9054 28.4146 15.8294 30.3386C17.7534 32.2627 20.363 33.3436 23.084 33.3436C25.805 33.3436 28.4146 32.2627 30.3386 30.3386C32.2627 28.4146 33.3436 25.805 33.3436 23.084C33.3436 20.363 32.2627 17.7534 30.3386 15.8294C28.4146 13.9054 25.805 12.8245 23.084 12.8245ZM23.084 17.9542C24.4445 17.9542 25.7493 18.4947 26.7113 19.4567C27.6733 20.4187 28.2138 21.7235 28.2138 23.084C28.2138 24.4445 27.6733 25.7493 26.7113 26.7113C25.7493 27.6733 24.4445 28.2138 23.084 28.2138C21.7235 28.2138 20.4187 27.6733 19.4567 26.7113C18.4947 25.7493 17.9542 24.4445 17.9542 23.084C17.9542 21.7235 18.4947 20.4187 19.4567 19.4567C20.4187 18.4947 21.7235 17.9542 23.084 17.9542ZM34.626 8.97712C33.9458 8.97712 33.2934 9.24734 32.8124 9.72836C32.3314 10.2094 32.0611 10.8618 32.0611 11.542C32.0611 12.2223 32.3314 12.8746 32.8124 13.3557C33.2934 13.8367 33.9458 14.1069 34.626 14.1069C35.3063 14.1069 35.9587 13.8367 36.4397 13.3557C36.9207 12.8746 37.1909 12.2223 37.1909 11.542C37.1909 10.8618 36.9207 10.2094 36.4397 9.72836C35.9587 9.24734 35.3063 8.97712 34.626 8.97712Z" fill="white"/>
</svg>
