<svg width="36" height="44" viewBox="0 0 36 44" fill="none" xmlns="http://www.w3.org/2000/svg">
<g filter="url(#filter0_d_374_148)">
<path d="M18 19C16.6739 19 15.4021 18.4732 14.4645 17.5355C13.5268 16.5979 13 15.3261 13 14C13 12.6739 13.5268 11.4021 14.4645 10.4645C15.4021 9.52678 16.6739 9 18 9C19.3261 9 20.5979 9.52678 21.5355 10.4645C22.4732 11.4021 23 12.6739 23 14C23 14.6566 22.8707 15.3068 22.6194 15.9134C22.3681 16.52 21.9998 17.0712 21.5355 17.5355C21.0712 17.9998 20.52 18.3681 19.9134 18.6194C19.3068 18.8707 18.6566 19 18 19ZM18 0C14.287 0 10.726 1.475 8.10051 4.1005C5.475 6.72601 4 10.287 4 14C4 24.5 18 40 18 40C18 40 32 24.5 32 14C32 10.287 30.525 6.72601 27.8995 4.1005C25.274 1.475 21.713 0 18 0Z" fill="white"/>
<path d="M18 0.5C21.5804 0.5 25.0142 1.92236 27.5459 4.4541C30.0776 6.98584 31.5 10.4196 31.5 14C31.5 16.5238 30.6561 19.387 29.3564 22.2881C28.0597 25.1825 26.3265 28.0785 24.5859 30.6582C22.8463 33.2365 21.1049 35.4894 19.7988 37.0986C19.146 37.903 18.6027 38.5462 18.2227 38.9873C18.1411 39.082 18.0659 39.1665 18 39.2422C17.9341 39.1665 17.8589 39.082 17.7773 38.9873C17.3973 38.5462 16.854 37.903 16.2012 37.0986C14.8951 35.4894 13.1537 33.2365 11.4141 30.6582C9.67354 28.0785 7.94028 25.1825 6.64355 22.2881C5.34389 19.387 4.5 16.5238 4.5 14C4.5 10.4196 5.92236 6.98584 8.4541 4.4541C10.9858 1.92236 14.4196 0.5 18 0.5ZM18 8.5C16.5413 8.5 15.1428 9.07988 14.1113 10.1113C13.0799 11.1428 12.5 12.5413 12.5 14C12.5 15.4587 13.0799 16.8572 14.1113 17.8887C15.1428 18.9201 16.5413 19.5 18 19.5C18.7222 19.5 19.4372 19.3574 20.1045 19.0811C20.7718 18.8047 21.378 18.3994 21.8887 17.8887C22.3994 17.3779 22.8047 16.7718 23.0811 16.1045C23.3574 15.4372 23.5 14.7222 23.5 14C23.5 12.5413 22.9201 11.1428 21.8887 10.1113C20.8572 9.07988 19.4587 8.5 18 8.5Z" stroke="black"/>
</g>
<defs>
<filter id="filter0_d_374_148" x="0" y="0" width="36" height="48" filterUnits="userSpaceOnUse" color-interpolation-filters="sRGB">
<feFlood flood-opacity="0" result="BackgroundImageFix"/>
<feColorMatrix in="SourceAlpha" type="matrix" values="0 0 0 0 0 0 0 0 0 0 0 0 0 0 0 0 0 0 127 0" result="hardAlpha"/>
<feOffset dy="4"/>
<feGaussianBlur stdDeviation="2"/>
<feComposite in2="hardAlpha" operator="out"/>
<feColorMatrix type="matrix" values="0 0 0 0 0 0 0 0 0 0 0 0 0 0 0 0 0 0 0.25 0"/>
<feBlend mode="normal" in2="BackgroundImageFix" result="effect1_dropShadow_374_148"/>
<feBlend mode="normal" in="SourceGraphic" in2="effect1_dropShadow_374_148" result="shape"/>
</filter>
</defs>
</svg>
