<svg width="28" height="26" viewBox="0 0 28 26" fill="none" xmlns="http://www.w3.org/2000/svg">
<path d="M13.5547 21.6917L6.98389 25.65C6.69361 25.8347 6.39014 25.9139 6.07347 25.8875C5.7568 25.8611 5.47972 25.7556 5.24222 25.5708C5.00472 25.3861 4.82 25.1555 4.68805 24.8789C4.55611 24.6024 4.52972 24.292 4.60889 23.9479L6.35055 16.4667L0.531803 11.4396C0.267915 11.2021 0.103248 10.9313 0.0378033 10.6273C-0.0276411 10.3233 -0.00811342 10.0267 0.0963866 9.7375C0.200887 9.44828 0.35922 9.21078 0.571387 9.025C0.783553 8.83922 1.07383 8.72047 1.44222 8.66875L9.12139 7.99583L12.0901 0.95C12.2221 0.633334 12.4269 0.395833 12.7045 0.2375C12.9821 0.0791664 13.2655 0 13.5547 0C13.8439 0 14.1274 0.0791664 14.405 0.2375C14.6826 0.395833 14.8874 0.633334 15.0193 0.95L17.9881 7.99583L25.6672 8.66875C26.0367 8.72153 26.3269 8.84028 26.5381 9.025C26.7492 9.20972 26.9075 9.44722 27.0131 9.7375C27.1186 10.0278 27.1387 10.3249 27.0732 10.6289C27.0078 10.9329 26.8426 11.2031 26.5776 11.4396L20.7589 16.4667L22.5006 23.9479C22.5797 24.291 22.5533 24.6013 22.4214 24.8789C22.2894 25.1565 22.1047 25.3872 21.8672 25.5708C21.6297 25.7545 21.3526 25.8601 21.036 25.8875C20.7193 25.9149 20.4158 25.8358 20.1256 25.65L13.5547 21.6917Z" fill="#06F30A"/>
</svg>
