<svg width="49" height="49" viewBox="0 0 49 49" fill="none" xmlns="http://www.w3.org/2000/svg">
<path d="M24.4078 0C10.9347 0 0 10.9347 0 24.4078C0 37.8809 10.9347 48.8157 24.4078 48.8157C37.8809 48.8157 48.8157 37.8809 48.8157 24.4078C48.8157 10.9347 37.8809 0 24.4078 0ZM35.7331 16.5973C35.3669 20.4538 33.7804 29.8264 32.975 34.1465C32.6333 35.9771 31.9498 36.5873 31.3152 36.6606C29.8996 36.7826 28.8256 35.7331 27.4588 34.83C25.3109 33.4143 24.0905 32.5356 22.0159 31.1688C19.5995 29.5823 21.1616 28.7036 22.5528 27.288C22.9189 26.9218 29.1674 21.2348 29.2894 20.7222C29.3063 20.6446 29.3041 20.564 29.2828 20.4874C29.2616 20.4109 29.2219 20.3407 29.1674 20.2829C29.0209 20.1609 28.8256 20.2097 28.6548 20.2341C28.4351 20.2829 25.018 22.5528 18.3547 27.0439C17.3784 27.7029 16.4997 28.0446 15.7186 28.0202C14.84 27.9958 13.1802 27.532 11.9354 27.1171C10.3977 26.6289 9.20175 26.3605 9.29938 25.5062C9.3482 25.0668 9.95839 24.6275 11.1056 24.1637C18.2326 21.064 22.9678 19.0137 25.3353 18.0374C32.1207 15.2061 33.5119 14.7179 34.4394 14.7179C34.6347 14.7179 35.0985 14.7667 35.3913 15.0108C35.6354 15.2061 35.7086 15.4746 35.7331 15.6698C35.7086 15.8163 35.7575 16.2556 35.7331 16.5973Z" fill="white"/>
</svg>
