<svg width="42" height="42" viewBox="0 0 42 42" fill="none" xmlns="http://www.w3.org/2000/svg">
<path d="M33.25 7H31.5V5.25C31.5 4.2 30.8 3.5 29.75 3.5C28.7 3.5 28 4.2 28 5.25V7H14V5.25C14 4.2 13.3 3.5 12.25 3.5C11.2 3.5 10.5 4.2 10.5 5.25V7H8.75C5.775 7 3.5 9.275 3.5 12.25V14H38.5V12.25C38.5 9.275 36.225 7 33.25 7ZM3.5 33.25C3.5 36.225 5.775 38.5 8.75 38.5H33.25C36.225 38.5 38.5 36.225 38.5 33.25V17.5H3.5V33.25ZM29.75 21C30.8 21 31.5 21.7 31.5 22.75C31.5 23.8 30.8 24.5 29.75 24.5C28.7 24.5 28 23.8 28 22.75C28 21.7 28.7 21 29.75 21ZM29.75 28C30.8 28 31.5 28.7 31.5 29.75C31.5 30.8 30.8 31.5 29.75 31.5C28.7 31.5 28 30.8 28 29.75C28 28.7 28.7 28 29.75 28ZM21 21C22.05 21 22.75 21.7 22.75 22.75C22.75 23.8 22.05 24.5 21 24.5C19.95 24.5 19.25 23.8 19.25 22.75C19.25 21.7 19.95 21 21 21ZM21 28C22.05 28 22.75 28.7 22.75 29.75C22.75 30.8 22.05 31.5 21 31.5C19.95 31.5 19.25 30.8 19.25 29.75C19.25 28.7 19.95 28 21 28ZM12.25 21C13.3 21 14 21.7 14 22.75C14 23.8 13.3 24.5 12.25 24.5C11.2 24.5 10.5 23.8 10.5 22.75C10.5 21.7 11.2 21 12.25 21ZM12.25 28C13.3 28 14 28.7 14 29.75C14 30.8 13.3 31.5 12.25 31.5C11.2 31.5 10.5 30.8 10.5 29.75C10.5 28.7 11.2 28 12.25 28Z" fill="white"/>
</svg>
